<svg viewBox="0 0 128 128" xmlns="http://www.w3.org/2000/svg"><circle cx="64" cy="64" r="64" fill="#662d91"/><g fill="#fff" stroke-width=".45233"><path d="m63.981 53.488c-5.7899 0-10.494 4.7043-10.494 10.494 0 5.7899 4.7043 10.494 10.494 10.494s10.494-4.7043 10.494-10.494c0-5.7899-4.7043-10.494-10.494-10.494z"/><path d="m51.089 78.41c0.36185 0.13574 0.72372 0.22616 1.0856 0.22616 0.72372 0 1.4022-0.2714 1.945-0.8142 1.0856-1.0856 1.0856-2.8497 0-3.9353-0.5428-0.5428-1.2665-0.8142-1.9903-0.8142-0.72374 0-1.4475 0.2714-1.9903 0.8142-0.8142 0.8142-1.0404 2.0354-0.58803 3.0306l-5.6089 2.1712-23.339 27.772 0.49756 0.49756 27.772-23.339z"/><path d="m46.837 89.454c2.4427 2.0808 4.9305 3.9353 7.5539 5.6089 0.9499-0.36187 3.0306-1.1761 3.9353-1.7188-3.2115-1.8546-5.7899-3.7543-8.7301-6.2421z"/><path d="m79.044 43.988-2.1712 5.6089c-0.36187-0.13574-0.72374-0.22616-1.0404-0.22616-0.72372 0-1.4022 0.2714-1.945 0.8142-1.0856 1.0856-1.0856 2.8497 0 3.9353 0.5428 0.5428 1.2665 0.8142 1.9903 0.8142 0.72374 0 1.4475-0.2714 1.9903-0.8142 0.8142-0.8142 1.0404-2.0354 0.58803-3.0306l5.6089-2.1712 23.339-27.772-0.49756-0.49756z"/><path d="m75.469 45.436c-3.3472-2.0808-7.2826-3.3021-11.489-3.3021-12.032 0-21.847 9.8157-21.847 21.847 0 4.2066 1.2213 8.142 3.3019 11.489l1.1761-0.45234c0.18093-1.1761 0.72372-2.2616 1.5832-3.1664 0.18094-0.18093 0.36187-0.31664 0.58803-0.49756-1.0856-2.2165-1.7188-4.7494-1.7188-7.373 0-9.318 7.5992-16.917 16.917-16.917 2.6687 0 5.1565 0.63325 7.373 1.7188 0.13574-0.18093 0.2714-0.40709 0.45233-0.58803 0.85943-0.85942 1.945-1.4022 3.1664-1.5832z"/><path d="m56.608 79.188c-0.13574 0.18093-0.2714 0.40711-0.45233 0.58803-0.85943 0.85943-1.945 1.4022-3.1664 1.5832l-0.45234 1.1761c3.3472 2.0808 7.2826 3.3021 11.489 3.3021 12.032 0 21.847-9.8157 21.847-21.847 0-4.2066-1.2213-8.142-3.3019-11.489l-1.1761 0.45233c-0.18093 1.1761-0.72372 2.2616-1.5832 3.1664-0.18094 0.18094-0.36187 0.31664-0.58803 0.49756 1.0856 2.2165 1.7188 4.7494 1.7188 7.373-0.0453 9.3633-7.6445 16.917-16.962 16.917-2.6684-3.76e-4 -5.1562-0.63365-7.3727-1.7192z"/><path d="m27.976 93.745 2.3974-2.8497c-3.2568-5.9255-3.2568-13.932-0.40711-22.391 2.2616 4.3877 5.1565 8.6848 8.5943 12.665l2.3069-2.714c-3.8449-4.5686-6.9206-9.4537-9.1371-14.429 2.8949-6.5136 7.373-13.072 13.299-18.997 5.7899-5.7899 12.303-10.313 18.953-13.299 4.8852 2.1712 9.8157 5.2018 14.475 9.1371l2.714-2.3069c-4.0709-3.483-8.4133-6.3327-12.711-8.549 1.4474-0.49756 2.8497-0.90465 4.2519-1.2213 7.1468-1.6284 13.389-1.0404 18.183 1.5832l2.8497-2.3974c-5.6542-3.6187-13.253-4.5686-21.803-2.6236-2.6687 0.58802-5.3375 1.4474-8.0062 2.5782-12.937-5.2922-25.601-4.7043-33.156 2.8497-5.835 5.835-7.78 14.836-5.428 25.285 0.58803 2.6687 1.4927 5.3375 2.5784 7.9611-4.5231 11.127-4.7492 22.074 0.0455 29.718zm31.527-63.779c-5.9708 3.0759-11.806 7.3277-17.008 12.575-5.2922 5.2922-9.4989 11.127-12.53 17.008-0.45232-1.4022-0.90465-2.8044-1.2213-4.2519-2.0354-9.2729-0.45233-17.098 4.4784-22.028 5.971-5.9709 15.787-6.8304 26.28-3.3021z"/><path d="m83.025 82.935c-8.3228 8.3228-18.139 14.067-27.682 16.239-7.1468 1.6284-13.389 1.0404-18.183-1.5832l-2.8497 2.3974c3.7543 2.3974 8.3228 3.6187 13.434 3.6187 2.6687 0 5.4733-0.31664 8.3682-0.99513 10.177-2.3069 20.626-8.3681 29.402-17.144 5.1565-5.1565 9.4537-10.992 12.575-17.008 3.5283 10.494 2.6687 20.31-3.3019 26.28-4.5233 4.5233-11.625 6.197-19.813 4.8852-1.5379 0.94989-3.0759 1.8093-4.659 2.5782 3.483 0.90467 6.8302 1.4022 9.9512 1.4022 6.8755 0 12.801-2.1712 17.008-6.3778 10.946-10.946 7.2826-32.703-7.78-50.39l-2.3531 2.715c3.89 4.659 6.9659 9.6079 9.1371 14.448-2.9853 6.6493-7.5991 13.28-13.253 18.935z"/><path d="m97.59 37.113c1.9903 3.6638 2.7593 8.2324 2.3069 13.344 1.0404 1.6284 1.9903 3.3021 2.8044 4.9305 1.7188-8.2777 0.76898-15.605-2.7593-21.168z"/></g></svg>
