<svg viewBox="0 0 128 128" xmlns="http://www.w3.org/2000/svg"><path d="m63.921 2.0068e-7c-3.89 0.05388-7.7774 0.37004-11.603 1.0933-4.196 0.77479-8.3072 1.9883-12.27 3.5707-3.9191 1.5875-7.6757 3.566-11.218 5.876-3.4953 2.3085-6.7592 4.958-9.7569 7.8839-2.9442 2.9253-5.6186 6.1183-7.9608 9.546-2.3797 3.4956-4.4011 7.2295-6.065 11.117-1.5991 3.8284-2.8504 7.8005-3.7025 11.862-0.84498 4.1025-1.2972 8.284-1.3433 12.473-0.03237 4.1881 0.34659 8.3764 1.1148 12.494 0.78586 4.115 1.9745 8.1496 3.5331 12.039 1.5854 3.9188 3.5658 7.6727 5.8718 11.216 2.2977 3.456 4.9034 6.7052 7.81 9.67 2.9667 3.0139 6.2331 5.7268 9.7226 8.1162 3.4734 2.3407 7.1672 4.3464 11.018 5.9945 3.8297 1.5991 7.8038 2.847 11.867 3.7004 4.1016 0.84959 8.2833 1.2946 12.472 1.3451 4.1889 0.0288 8.379-0.34451 12.497-1.1167 4.1139-0.78808 8.1493-1.9721 12.038-3.5305 3.92-1.5858 7.6752-3.5668 11.218-5.8751 3.4962-2.3074 6.7581-4.9594 9.7563-7.8848 2.9442-2.9253 5.6186-6.1183 7.9608-9.546 2.3797-3.4956 4.4011-7.2295 6.065-11.117 1.6026-3.8275 2.8489-7.8008 3.7025-11.862 0.84498-4.1025 1.2972-8.284 1.3433-12.473 0.24344-16.333-6.1624-32.627-17.403-44.473-10.506-11.227-25.192-18.413-40.503-19.829-2.0494-0.19577-4.1085-0.29009-6.1671-0.28993z" fill="#662d91" stroke-dasharray="8.81448, 26.4434" stroke-width="8.8145"/><g transform="matrix(1.7096 0 0 1.7096 -53.26 -91.182)" fill="#fff" stroke-width=".26458"><path d="m68.578 84.622c-3.3867 0-6.1383 2.7517-6.1383 6.1383 0 3.3867 2.7517 6.1383 6.1383 6.1383s6.1383-2.7517 6.1383-6.1383c0-3.3867-2.7517-6.1383-6.1383-6.1383z"/><path d="m61.037 99.2c0.21166 0.0794 0.42333 0.13229 0.635 0.13229 0.42333 0 0.8202-0.15875 1.1377-0.47625 0.635-0.635 0.635-1.6669 0-2.3019-0.3175-0.3175-0.74083-0.47625-1.1642-0.47625-0.42334 0-0.84667 0.15875-1.1642 0.47625-0.47625 0.47625-0.60854 1.1906-0.34396 1.7727l-3.2808 1.27-13.652 16.245 0.29104 0.29104 16.245-13.652z"/><path d="m58.55 105.66c1.4288 1.2171 2.884 2.3019 4.4185 3.2808 0.55563-0.21167 1.7727-0.68792 2.3019-1.0054-1.8785-1.0848-3.3867-2.196-5.1065-3.6512z"/><path d="m77.389 79.065-1.27 3.2808c-0.21167-0.0794-0.42334-0.13229-0.60855-0.13229-0.42333 0-0.8202 0.15875-1.1377 0.47625-0.635 0.635-0.635 1.6669 0 2.3019 0.3175 0.3175 0.74083 0.47625 1.1642 0.47625 0.42334 0 0.84667-0.15875 1.1642-0.47625 0.47625-0.47625 0.60854-1.1906 0.34396-1.7727l3.2808-1.27 13.652-16.245-0.29104-0.29104z"/><path d="m75.298 79.912c-1.9579-1.2171-4.2598-1.9315-6.7204-1.9315-7.0379 0-12.779 5.7415-12.779 12.779 0 2.4606 0.71437 4.7625 1.9314 6.7204l0.68792-0.26459c0.10583-0.68791 0.42333-1.3229 0.92604-1.8521 0.10584-0.10583 0.21167-0.18521 0.34396-0.29104-0.635-1.2965-1.0054-2.7781-1.0054-4.3127 0-5.4504 4.445-9.8954 9.8954-9.8954 1.561 0 3.0162 0.37041 4.3127 1.0054 0.0794-0.10583 0.15875-0.23812 0.26458-0.34396 0.50271-0.5027 1.1377-0.8202 1.8521-0.92604z"/><path d="m68.578 100.66c-1.561 0-3.0162-0.37042-4.3127-1.0054-0.0794 0.10583-0.15875 0.23813-0.26458 0.34396-0.50271 0.50271-1.1377 0.82021-1.8521 0.92604l-0.26459 0.68792c1.9579 1.2171 4.2598 1.9315 6.7204 1.9315 7.0379 0 12.779-5.7415 12.779-12.779 0-2.4606-0.71437-4.7625-1.9314-6.7204l-0.68792 0.26458c-0.10583 0.68792-0.42333 1.3229-0.92604 1.8521-0.10584 0.10584-0.21167 0.18521-0.34396 0.29104 0.635 1.2965 1.0054 2.7781 1.0054 4.3127-0.0265 5.4769-4.4715 9.8954-9.9219 9.8954z"/><path d="m47.491 90.787c-2.6458 6.5088-2.7781 12.912 0.0265 17.383l1.4023-1.6669c-1.905-3.466-1.905-8.1492-0.23813-13.097 1.3229 2.5665 3.0162 5.08 5.0271 7.4083l1.3494-1.5875c-2.249-2.6723-4.0481-5.5298-5.3446-8.4402 1.6933-3.81 4.3127-7.6465 7.7788-11.112 3.3867-3.3867 7.1967-6.0325 11.086-7.7788 2.8575 1.27 5.7415 3.0427 8.4667 5.3446l1.5875-1.3494c-2.3812-2.0373-4.9212-3.7042-7.4348-5.0006 0.84666-0.29104 1.6669-0.52916 2.4871-0.71437 4.1804-0.9525 7.8317-0.60854 10.636 0.92604l1.6669-1.4023c-3.3073-2.1167-7.7523-2.6723-12.753-1.5346-1.561 0.34395-3.1221 0.84666-4.6831 1.5081-7.5671-3.0956-14.975-2.7517-19.394 1.6669-3.4131 3.4131-4.5508 8.6783-3.175 14.79 0.34396 1.561 0.87313 3.1221 1.5081 4.6567zm3.0956-17.992c3.4925-3.4925 9.234-3.9952 15.372-1.9314-3.4925 1.7992-6.9056 4.2862-9.9483 7.3554-3.0956 3.0956-5.5562 6.5088-7.329 9.9483-0.26458-0.82021-0.52916-1.6404-0.71437-2.4871-1.1906-5.424-0.26458-10.001 2.6194-12.885z"/><path d="m82.125 82.32c2.2754 2.7252 4.0746 5.6092 5.3446 8.4402l-0.0265 0.0794c-1.7462 3.8894-4.4185 7.6994-7.7258 11.007-4.8683 4.8683-10.61 8.2285-16.192 9.4985-4.1804 0.9525-7.8317 0.60855-10.636-0.92604l-1.6669 1.4023c2.196 1.4023 4.8683 2.1167 7.8581 2.1167 1.561 0 3.2015-0.18521 4.8948-0.58208 5.9531-1.3494 12.065-4.8948 17.198-10.028 3.0162-3.0162 5.5298-6.4294 7.3554-9.9483 2.0638 6.1383 1.561 11.88-1.9314 15.372-2.6458 2.6458-6.7998 3.6248-11.589 2.8575-0.89959 0.55562-1.7992 1.0583-2.7252 1.5081 2.0373 0.52917 3.9952 0.82021 5.8208 0.82021 4.0217 0 7.4877-1.27 9.9483-3.7306 6.4029-6.4029 4.2598-19.129-4.5508-29.475z"/><path d="m88.237 75.044c1.1642 2.1431 1.614 4.8154 1.3494 7.8052 0.60854 0.9525 1.1642 1.9315 1.6404 2.884 1.0054-4.8419 0.4498-9.1281-1.614-12.382z"/></g></svg>