<svg version="1.1" viewBox="0 0 391 391" xmlns="http://www.w3.org/2000/svg"><style type="text/css">.st0{fill:#662D91;}
	.st1{fill:#FFFFFF;}
	.st2{fill:#36204F;}
	.st3{fill:url(#SVGID_1_);}
	.st4{fill:url(#SVGID_00000054257414562981228120000001574687163085119653_);}
	.st5{fill:url(#SVGID_00000072998375269293171440000018213926298751993760_);}
	.st6{fill:url(#SVGID_00000014615508004562851300000006094527432216711301_);}
	.st7{fill:url(#SVGID_00000013161522689771818110000010315873926876005009_);}
	.st8{clip-path:url(#SVGID_00000144319605520673463540000011190800844866639500_);fill:#FFFFFF;}
	.st9{clip-path:url(#SVGID_00000144319605520673463540000011190800844866639500_);fill:#3375C6;}
	.st10{opacity:0.5;fill:url(#SVGID_00000103236622958962217100000000896203148096719288_);}
	.st11{opacity:0.39;fill:url(#SVGID_00000001625125440351536700000010266301937016667048_);}
	.st12{fill:url(#SVGID_00000124141742389249847090000005945901909340613275_);}
	.st13{fill:url(#XMLID_00000072986874545207087730000001673768990059418281_);}
	.st14{fill:url(#XMLID_00000053514400916280977180000006774919194279780226_);}
	.st15{fill:url(#XMLID_00000172411063983058279480000005865108757823933591_);}</style><circle class="st0" cx="195.5" cy="195.5" r="195.5"/><g transform="matrix(1.2397 0 0 1.2397 1292.2 2009.7)"><circle class="st1" cx="-884.7" cy="-1463.5" r="25.3"/><path class="st1" d="m-913.2-1441.7c-1.7 0-3.4 0.7-4.8 2-2 2-2.5 4.9-1.5 7.3l-13.6 5.3-56.3 67 1.2 1.2 67-56.3 5.3-13.6c0.8 0.3 1.7 0.5 2.6 0.5 1.7 0 3.4-0.7 4.7-2 2.6-2.6 2.6-6.9 0-9.5-1.2-1.3-2.9-1.9-4.6-1.9z"/><path class="st1" d="m-924-1367.9c6.4 0 13.2-0.8 20.2-2.4 24.6-5.5 49.8-20.2 70.9-41.4 14.2-14.2 25.7-30.5 33.3-47.2l-6.6-6.2-0.5 1.3-0.3 0.7c-7.2 16-18.2 31.8-31.9 45.4-20.1 20.1-43.8 34-66.8 39.1-17.2 3.9-32.4 2.5-43.9-3.9l-6.9 5.8c9.1 5.9 20.1 8.8 32.5 8.8z"/><path class="st1" d="m-898.4-1392.7c-7.8-4.5-13.9-9-21.1-15l-6.6 5.5c5.8 5 11.9 9.5 18.2 13.6 2.4-0.8 7.4-2.8 9.5-4.1z"/><path class="st1" d="m-848.3-1511.8-5.3 13.6c-0.8-0.3-1.7-0.5-2.6-0.5-1.7 0-3.4 0.7-4.7 2-2.6 2.6-2.6 6.9 0 9.5 1.3 1.3 3 2 4.8 2 1.7 0 3.4-0.7 4.8-2 2-2 2.5-4.9 1.5-7.3l13.6-5.3 56.3-67-1.2-1.2z"/><path class="st1" d="m-922.8-1444.5c0.4-0.4 0.9-0.8 1.4-1.1-2.6-5.4-4.2-11.4-4.2-17.8 0-22.5 18.3-40.8 40.8-40.8 6.4 0 12.4 1.5 17.8 4.2 0.4-0.5 0.7-1 1.1-1.4 2.1-2.1 4.7-3.4 7.6-3.8l1.1-2.9c-8.1-5-17.5-7.9-27.7-7.9-29.1 0-52.7 23.6-52.7 52.7 0 10.2 2.9 19.6 8 27.7l2.9-1.1c0.5-3 1.8-5.7 3.9-7.8z"/><path class="st1" d="m-846.6-1482.5c-0.4 0.4-0.9 0.8-1.4 1.1 2.6 5.4 4.2 11.4 4.2 17.8 0 22.5-18.3 40.8-40.8 40.8-6.4 0-12.4-1.5-17.8-4.2-0.4 0.5-0.7 1-1.1 1.4-2.1 2.1-4.7 3.4-7.6 3.8l-1.1 2.9c8.1 5 17.5 7.9 27.7 7.9 29.1 0 52.7-23.6 52.7-52.7 0-10.2-2.9-19.6-7.9-27.7l-2.9 1.1c-0.6 3-1.9 5.7-4 7.8z"/><path class="st1" d="m-964.9-1543.7c-14.1 14.1-18.7 35.8-13.1 61.1 4.7 20.7 15.8 41.8 31.8 60.5l5.5-6.6c-14.6-17.5-24.8-36.9-29.1-55.8-5-22.3-1.2-41.2 10.8-53.2 23.1-23.1 69.9-14.5 109 18.3l6.6-5.5c-42.6-36.3-95.1-45.2-121.5-18.8z"/><path class="st1" d="m-823.3-1504.9-5.5 6.6c32.8 39.1 41.4 86 18.3 109-10.9 10.9-28 15-47.8 11.8-3.7 2.3-7.5 4.4-11.3 6.3 8.4 2.2 16.4 3.4 24 3.4 16.6 0 30.9-5.2 41.1-15.4 26.4-26.5 17.5-79-18.8-121.7z"/><path class="st1" d="m-865.6-1556.7c-24.6 5.5-49.8 20.2-70.9 41.4-40.2 40.2-54.4 92.9-35.1 123.6l5.8-6.9c-15.2-27.6-1.1-74.3 35.3-110.7 20.1-20.1 43.8-34 66.8-39.1 17.2-3.9 32.4-2.5 43.9 3.8l6.9-5.8c-13.7-8.7-32-11-52.7-6.3z"/><path class="st1" d="m-797.8-1535.3-5.8 6.9c4.8 8.8 6.7 19.8 5.6 32.2 2.5 4 4.8 7.9 6.8 11.9 4.2-20 1.9-37.7-6.6-51z"/></g></svg>
